<?xml version="1.0" encoding="utf-8"?>
<!-- Generator: Adobe Illustrator 16.0.0, SVG Export Plug-In . SVG Version: 6.00 Build 0)  -->
<!DOCTYPE svg PUBLIC "-//W3C//DTD SVG 1.1//EN" "http://www.w3.org/Graphics/SVG/1.1/DTD/svg11.dtd">
<svg version="1.1" xmlns="http://www.w3.org/2000/svg" xmlns:xlink="http://www.w3.org/1999/xlink" x="0px" y="0px" width="200px"
	 height="32px" viewBox="0 0 200 32" enable-background="new 0 0 200 32" xml:space="preserve">
<g id="curiosity_bits_and_piece">
	<g id="Layer_14" display="none">
	</g>
	<g id="Layer_16" display="none">
	</g>
	<g id="Layer_17" display="none">
	</g>
	<g id="new_arm_in_progress">
	</g>
	<g id="v2">
		<g id="Layer_38">
		</g>
	</g>
	<g id="v2_crop">
		<g id="Layer_38_copy">
		</g>
	</g>
	<g id="v2_crop_copy">
		<defs>
			<circle id="SVGID_3_" cx="5024" cy="4905.32" r="450"/>
		</defs>
		<clipPath id="SVGID_2_">
			<use xlink:href="#SVGID_3_"  overflow="visible" opacity="0.2"/>
		</clipPath>
		<g id="Layer_38_copy_2" clip-path="url(#SVGID_2_)">
		</g>
	</g>
</g>
<g id="curiosity_final" display="none">
</g>
<g id="wrench_bits_and_piece" display="none">
</g>
<g id="wrench_in_featurette">
</g>
<g id="Layer_47">
</g>
<g id="curiosity_in_feature" display="none">
</g>
<g id="curiosity_in_feature_copy" display="none">
</g>
<g id="kawako" display="none">
</g>
<g id="servers" display="none">
	<g id="server_1_" display="inline">
		<g id="blade_copy_2_4_">
		</g>
		<g id="blade_copy_2_3_">
		</g>
		<g id="blade_copy_2_2_">
		</g>
		<g id="blade_copy_2_1_">
		</g>
		<g id="blade_copy_2">
		</g>
	</g>
</g>
<g id="gear" display="none">
</g>
<g id="gear_in_featurette">
</g>
<g id="Layer_48">
</g>
<g id="globe" display="none">
</g>
<g id="Layer_6">
</g>
<g id="cloud" display="none">
</g>
<g id="how_it_work">
	<g id="servers_1_" display="none">
		<g id="server_copy" display="inline">
			<g id="blade_copy_3_4_">
			</g>
			<g id="blade_copy_3_3_">
			</g>
			<g id="blade_copy_3_2_">
			</g>
			<g id="blade_copy_3_1_">
			</g>
			<g id="blade_copy_3">
			</g>
		</g>
	</g>
	<g id="blade_copy_4" display="none">
	</g>
	<g id="blade_copy_6" display="none">
	</g>
	<g id="blade_copy_5">
	</g>
	<g id="kawako_copy" display="none">
	</g>
	<g id="kawako_kappabox" display="none">
	</g>
	<g id="meter">
	</g>
	<g id="spray">
	</g>
</g>
<g id="logo-name">
	<g id="kawako_in_logo-name">
		<g>
			<path fill="#3A3F41" d="M76.638,24.29h-2.725l-7.263-9.661l-2.085,1.854v7.808h-2.316V4.369h2.316v9.879l9.034-9.879h2.739
				l-8.012,8.652L76.638,24.29z"/>
			<path fill="#3A3F41" d="M85.987,24.29l-0.45-2.126h-0.109c-0.745,0.937-1.488,1.569-2.228,1.901
				c-0.74,0.331-1.665,0.497-2.773,0.497c-1.48,0-2.641-0.382-3.481-1.145s-1.26-1.849-1.26-3.257c0-3.016,2.412-4.597,7.235-4.741
				l2.535-0.082v-0.927c0-1.172-0.252-2.037-0.756-2.596s-1.311-0.838-2.418-0.838c-1.245,0-2.653,0.382-4.224,1.145l-0.695-1.73
				c0.736-0.399,1.542-0.713,2.418-0.94c0.876-0.227,1.755-0.341,2.637-0.341c1.78,0,3.1,0.396,3.958,1.186
				c0.859,0.791,1.288,2.058,1.288,3.802V24.29H85.987z M80.877,22.695c1.408,0,2.514-0.386,3.318-1.158
				c0.804-0.771,1.206-1.853,1.206-3.242v-1.35l-2.262,0.096c-1.799,0.063-3.096,0.343-3.89,0.838
				c-0.795,0.495-1.192,1.266-1.192,2.31c0,0.817,0.247,1.44,0.743,1.867C79.294,22.482,79.987,22.695,80.877,22.695z"/>
			<path fill="#3A3F41" d="M97.041,24.563c-0.972,0-1.86-0.18-2.664-0.538c-0.804-0.358-1.479-0.911-2.023-1.655h-0.164
				c0.109,0.872,0.164,1.698,0.164,2.479v6.146h-2.262V9.355h1.84l0.313,2.044h0.109c0.581-0.817,1.258-1.407,2.03-1.771
				c0.772-0.363,1.658-0.546,2.657-0.546c1.98,0,3.508,0.678,4.585,2.03c1.077,1.354,1.615,3.253,1.615,5.696
				c0,2.452-0.547,4.358-1.642,5.716C100.503,23.884,98.984,24.563,97.041,24.563z M96.713,11.005c-1.526,0-2.63,0.422-3.311,1.267
				c-0.682,0.846-1.031,2.189-1.049,4.034v0.504c0,2.099,0.35,3.6,1.049,4.503c0.699,0.904,1.821,1.356,3.365,1.356
				c1.29,0,2.301-0.522,3.032-1.567c0.731-1.045,1.097-2.484,1.097-4.319c0-1.862-0.366-3.291-1.097-4.285
				C99.068,11.502,98.04,11.005,96.713,11.005z"/>
			<path fill="#3A3F41" d="M111.909,24.563c-0.972,0-1.86-0.18-2.664-0.538c-0.804-0.358-1.479-0.911-2.023-1.655h-0.164
				c0.109,0.872,0.164,1.698,0.164,2.479v6.146h-2.262V9.355h1.84l0.313,2.044h0.109c0.581-0.817,1.258-1.407,2.03-1.771
				c0.772-0.363,1.658-0.546,2.657-0.546c1.98,0,3.508,0.678,4.585,2.03c1.077,1.354,1.615,3.253,1.615,5.696
				c0,2.452-0.547,4.358-1.642,5.716C115.372,23.884,113.853,24.563,111.909,24.563z M111.582,11.005
				c-1.526,0-2.63,0.422-3.311,1.267c-0.682,0.846-1.031,2.189-1.049,4.034v0.504c0,2.099,0.35,3.6,1.049,4.503
				c0.699,0.904,1.821,1.356,3.365,1.356c1.29,0,2.301-0.522,3.032-1.567c0.731-1.045,1.097-2.484,1.097-4.319
				c0-1.862-0.366-3.291-1.097-4.285C113.937,11.502,112.908,11.005,111.582,11.005z"/>
			<path fill="#3A3F41" d="M129.011,24.29l-0.45-2.126h-0.109c-0.745,0.937-1.488,1.569-2.228,1.901
				c-0.74,0.331-1.665,0.497-2.773,0.497c-1.48,0-2.641-0.382-3.481-1.145s-1.26-1.849-1.26-3.257c0-3.016,2.412-4.597,7.235-4.741
				l2.535-0.082v-0.927c0-1.172-0.252-2.037-0.756-2.596s-1.311-0.838-2.418-0.838c-1.245,0-2.653,0.382-4.224,1.145l-0.695-1.73
				c0.736-0.399,1.542-0.713,2.418-0.94c0.876-0.227,1.755-0.341,2.637-0.341c1.78,0,3.1,0.396,3.958,1.186
				c0.859,0.791,1.288,2.058,1.288,3.802V24.29H129.011z M123.901,22.695c1.408,0,2.514-0.386,3.318-1.158
				c0.804-0.771,1.206-1.853,1.206-3.242v-1.35l-2.262,0.096c-1.799,0.063-3.096,0.343-3.89,0.838
				c-0.795,0.495-1.192,1.266-1.192,2.31c0,0.817,0.247,1.44,0.743,1.867C122.318,22.482,123.011,22.695,123.901,22.695z"/>
			<path fill="#3A3F41" d="M139.927,9.083c0.663,0,1.258,0.055,1.785,0.164l-0.313,2.099c-0.618-0.137-1.163-0.205-1.635-0.205
				c-1.208,0-2.242,0.491-3.1,1.472c-0.858,0.981-1.288,2.203-1.288,3.666v8.012h-2.262V9.355h1.867l0.259,2.767h0.109
				c0.554-0.972,1.222-1.722,2.003-2.248C138.133,9.347,138.992,9.083,139.927,9.083z"/>
			<path fill="#3A3F41" d="M155.164,16.81c0,2.435-0.613,4.335-1.84,5.702c-1.226,1.367-2.92,2.051-5.083,2.051
				c-1.335,0-2.521-0.313-3.556-0.94s-1.835-1.525-2.398-2.697c-0.563-1.172-0.845-2.544-0.845-4.115
				c0-2.435,0.608-4.331,1.826-5.689c1.217-1.357,2.907-2.037,5.069-2.037c2.089,0,3.749,0.695,4.98,2.085
				S155.164,14.438,155.164,16.81z M143.786,16.81c0,1.907,0.381,3.361,1.145,4.36s1.885,1.499,3.366,1.499
				c1.48,0,2.604-0.498,3.373-1.492c0.768-0.995,1.151-2.45,1.151-4.367c0-1.898-0.384-3.341-1.151-4.326
				c-0.768-0.985-1.901-1.479-3.4-1.479c-1.48,0-2.598,0.486-3.352,1.458S143.786,14.884,143.786,16.81z"/>
			<path fill="#3A3F41" d="M162.864,24.563c-2.162,0-3.835-0.665-5.021-1.996s-1.778-3.214-1.778-5.648
				c0-2.498,0.602-4.428,1.806-5.791c1.204-1.362,2.918-2.044,5.144-2.044c0.718,0,1.436,0.078,2.153,0.232
				c0.718,0.154,1.281,0.336,1.69,0.545l-0.695,1.921c-0.5-0.199-1.045-0.365-1.635-0.497c-0.591-0.132-1.113-0.197-1.567-0.197
				c-3.034,0-4.551,1.935-4.551,5.805c0,1.835,0.37,3.242,1.11,4.224s1.837,1.472,3.291,1.472c1.244,0,2.521-0.268,3.829-0.804
				v2.003C165.64,24.304,164.381,24.563,162.864,24.563z"/>
			<path fill="#3A3F41" d="M170.184,16.646c0.391-0.554,0.985-1.28,1.785-2.18l4.823-5.11h2.685l-6.05,6.364l6.472,8.57h-2.739
				l-5.273-7.059l-1.703,1.472v5.587h-2.235V3.088h2.235v11.241c0,0.5-0.037,1.272-0.109,2.316H170.184z"/>
		</g>
		<path fill-rule="evenodd" clip-rule="evenodd" fill="#3A3F41" d="M47.829,21.093c0,0-4.257-0.069-7.702-1.466
			c-3.336-1.352-5.866-4.032-5.866-4.032s-1.069,2.895-2.567,4.769c-1.435,1.79-3.301,2.564-3.301,2.564s-1.864-0.774-3.299-2.564
			c-1.498-1.874-2.567-4.769-2.567-4.769s-2.529,2.681-5.868,4.032c-3.443,1.396-7.7,1.466-7.7,1.466s2.764-6.298,2.2-6.231
			c-7.496,0.867-11-1.834-11-1.834l8.982-4.901c0,0-0.424,0.041-2.26-0.876C5.051,6.333,3.674,5.208,3.674,5.208
			S5.794,3.619,9.8,3.021c2.352-0.353,7.219,0.364,7.219,0.364l11.375-0.258L39.77,3.386c0,0,4.867-0.717,7.218-0.364
			c4.006,0.598,6.127,2.187,6.127,2.187s-1.378,1.125-3.209,2.042c-1.836,0.917-2.262,0.876-2.262,0.876l8.984,4.901
			c0,0-3.504,2.701-11,1.834C45.065,14.795,47.829,21.093,47.829,21.093z"/>
		<g id="bok_8_">
			<g>
				<path fill-rule="evenodd" clip-rule="evenodd" fill="#FCEE21" d="M28.395,0.585c-7.974,0-14.438,2.954-14.438,6.599
					c0,1.732,6.464,3.135,14.438,3.135c7.974,0,14.438-1.402,14.438-3.135C42.832,3.539,36.369,0.585,28.395,0.585z"/>
			</g>
			<g>
				<path fill="none" stroke="#FDF57A" stroke-width="0.247" stroke-miterlimit="10" d="M28.395,0.585
					c-7.974,0-14.438,2.954-14.438,6.599c0,1.732,6.464,3.135,14.438,3.135c7.974,0,14.438-1.402,14.438-3.135
					C42.832,3.539,36.369,0.585,28.395,0.585z"/>
			</g>
		</g>
		<g id="smile_2_">
			<path fill-rule="evenodd" clip-rule="evenodd" fill="#3A3F41" d="M31.729,26.899c0.1,0.613-1.895,1.129-4.362,1.505
				c-0.548,0.083,0.419,0.459,0,0.524c4.397-0.67,5.061-1.51,4.438-2.481l0,0C31.79,26.564,31.729,26.899,31.729,26.899z"/>
		</g>
		<g id="eyes_2_">
			<path fill-rule="evenodd" clip-rule="evenodd" fill="#3A3F41" d="M31.715,23.688l5.8-3.376l0.23,2.476
				c0,0-0.108,0.723-0.462,1.127c-0.339,0.383-0.928,0.675-0.928,0.675s-0.854,0.337-1.624,0.225
				C33.363,24.615,31.715,23.688,31.715,23.688z"/>
			<path fill-rule="evenodd" clip-rule="evenodd" fill="#3A3F41" d="M19.304,20.313l5.8,3.376c0,0-1.648,0.927-3.016,1.126
				c-0.771,0.112-1.625-0.225-1.625-0.225s-0.589-0.292-0.928-0.675c-0.355-0.404-0.463-1.127-0.463-1.127L19.304,20.313"/>
		</g>
		<path id="face_narrow_2_" fill-rule="evenodd" clip-rule="evenodd" fill="#3A3F41" d="M43.829,20.82
			c-2.211,6-8.287,11.062-15.435,11.062S15.171,26.82,12.959,20.82h0.553c2.202,6,8.031,10.419,14.882,10.419
			c6.848,0,12.68-4.419,14.882-10.419H43.829z"/>
	</g>
</g>
</svg>
